<mxfile host="app.diagrams.net" modified="2024-08-07T02:35:42.311Z" agent="Mozilla/5.0 (Macintosh; Intel Mac OS X 10_15_7) AppleWebKit/537.36 (KHTML, like Gecko) Chrome/127.0.0.0 Safari/537.36 Edg/127.0.0.0" etag="TzZ3NGKbE5vXYDV5XH1w" version="24.0.7" type="github">
  <diagram name="Page-1" id="74e2e168-ea6b-b213-b513-2b3c1d86103e">
    <mxGraphModel dx="1740" dy="845" grid="1" gridSize="10" guides="1" tooltips="1" connect="1" arrows="1" fold="1" page="1" pageScale="1" pageWidth="1100" pageHeight="850" background="none" math="1" shadow="0">
      <root>
        <mxCell id="0" />
        <mxCell id="1" parent="0" />
        <mxCell id="PKCxChARmm6Pcake6MCQ-4" value="" style="edgeStyle=orthogonalEdgeStyle;rounded=0;orthogonalLoop=1;jettySize=auto;html=1;" edge="1" parent="1" source="PKCxChARmm6Pcake6MCQ-1" target="PKCxChARmm6Pcake6MCQ-3">
          <mxGeometry relative="1" as="geometry" />
        </mxCell>
        <mxCell id="PKCxChARmm6Pcake6MCQ-1" value="在时间`t`时对潜在配置文件`U_(&quot;old &quot;)(x,y,z,t)`的初始猜测" style="rounded=0;whiteSpace=wrap;html=1;fontFamily=STSongti-SC-Regular;" vertex="1" parent="1">
          <mxGeometry x="230" y="40" width="310" height="60" as="geometry" />
        </mxCell>
        <mxCell id="PKCxChARmm6Pcake6MCQ-6" value="" style="edgeStyle=orthogonalEdgeStyle;rounded=0;orthogonalLoop=1;jettySize=auto;html=1;" edge="1" parent="1" source="PKCxChARmm6Pcake6MCQ-3" target="PKCxChARmm6Pcake6MCQ-5">
          <mxGeometry relative="1" as="geometry" />
        </mxCell>
        <mxCell id="PKCxChARmm6Pcake6MCQ-3" value="&amp;nbsp;求解平面`(y-z)`上的二维薛定谔方程:&lt;div&gt;得到归一化的平面波函数`xi^(m)(y,z;x,t)`&lt;/div&gt;&lt;div&gt;和`m`次子带能量`E_(\s\u\b)^(m)(x,t)`&lt;/div&gt;" style="whiteSpace=wrap;html=1;rounded=0;fontFamily=STSongti-SC-Regular;" vertex="1" parent="1">
          <mxGeometry x="271.25" y="120" width="230" height="60" as="geometry" />
        </mxCell>
        <mxCell id="PKCxChARmm6Pcake6MCQ-8" value="" style="edgeStyle=orthogonalEdgeStyle;rounded=0;orthogonalLoop=1;jettySize=auto;html=1;" edge="1" parent="1" source="PKCxChARmm6Pcake6MCQ-5" target="PKCxChARmm6Pcake6MCQ-7">
          <mxGeometry relative="1" as="geometry" />
        </mxCell>
        <mxCell id="PKCxChARmm6Pcake6MCQ-5" value="沿传输方向(`x`)求解一维瞬态薛定谔方程:&lt;div&gt;得到电子密度`n_(1D)^(m)(x,t)`&lt;/div&gt;" style="whiteSpace=wrap;html=1;fontFamily=STSongti-SC-Regular;rounded=0;" vertex="1" parent="1">
          <mxGeometry x="273.13" y="200" width="223.75" height="60" as="geometry" />
        </mxCell>
        <mxCell id="PKCxChARmm6Pcake6MCQ-10" value="" style="edgeStyle=orthogonalEdgeStyle;rounded=0;orthogonalLoop=1;jettySize=auto;html=1;" edge="1" parent="1" source="PKCxChARmm6Pcake6MCQ-7" target="PKCxChARmm6Pcake6MCQ-9">
          <mxGeometry relative="1" as="geometry" />
        </mxCell>
        <mxCell id="PKCxChARmm6Pcake6MCQ-25" value="" style="edgeStyle=orthogonalEdgeStyle;rounded=0;orthogonalLoop=1;jettySize=auto;html=1;" edge="1" parent="1" source="PKCxChARmm6Pcake6MCQ-7" target="PKCxChARmm6Pcake6MCQ-9">
          <mxGeometry relative="1" as="geometry" />
        </mxCell>
        <mxCell id="PKCxChARmm6Pcake6MCQ-7" value="通过将二维概率密度相乘,将一维电子密度转换为三维:`n_(3D)^(m)(x,y,z,t)=n_(1D)^(m)(x,t)|xi ^(m)(y,z;x,t)|^(2)`" style="whiteSpace=wrap;html=1;fontFamily=STSongti-SC-Regular;rounded=0;" vertex="1" parent="1">
          <mxGeometry x="240.63" y="280" width="288.75" height="50" as="geometry" />
        </mxCell>
        <mxCell id="PKCxChARmm6Pcake6MCQ-12" value="" style="edgeStyle=orthogonalEdgeStyle;rounded=0;orthogonalLoop=1;jettySize=auto;html=1;" edge="1" parent="1" source="PKCxChARmm6Pcake6MCQ-9" target="PKCxChARmm6Pcake6MCQ-11">
          <mxGeometry relative="1" as="geometry" />
        </mxCell>
        <mxCell id="PKCxChARmm6Pcake6MCQ-9" value="求解三维泊松方程:获得更新的势分布 `U_(\n\e\w) (x,y,z,t)`" style="whiteSpace=wrap;html=1;fontFamily=STSongti-SC-Regular;rounded=0;" vertex="1" parent="1">
          <mxGeometry x="286.25" y="350" width="197.5" height="60" as="geometry" />
        </mxCell>
        <mxCell id="PKCxChARmm6Pcake6MCQ-14" value="" style="edgeStyle=orthogonalEdgeStyle;rounded=0;orthogonalLoop=1;jettySize=auto;html=1;" edge="1" parent="1" source="PKCxChARmm6Pcake6MCQ-11" target="PKCxChARmm6Pcake6MCQ-13">
          <mxGeometry relative="1" as="geometry" />
        </mxCell>
        <mxCell id="PKCxChARmm6Pcake6MCQ-24" style="edgeStyle=orthogonalEdgeStyle;rounded=0;orthogonalLoop=1;jettySize=auto;html=1;exitX=1;exitY=0.5;exitDx=0;exitDy=0;entryX=1;entryY=0.5;entryDx=0;entryDy=0;" edge="1" parent="1" source="PKCxChARmm6Pcake6MCQ-11" target="PKCxChARmm6Pcake6MCQ-3">
          <mxGeometry relative="1" as="geometry">
            <mxPoint x="670" y="790" as="sourcePoint" />
            <mxPoint x="738.75" y="122.5" as="targetPoint" />
            <Array as="points">
              <mxPoint x="600" y="463" />
              <mxPoint x="600" y="150" />
            </Array>
          </mxGeometry>
        </mxCell>
        <mxCell id="PKCxChARmm6Pcake6MCQ-11" value="`max|U_(&quot;new&quot;)-U_(&quot;old&quot;)| &amp;lt; epsi?`" style="whiteSpace=wrap;html=1;fontFamily=Times New Roman;rounded=0;" vertex="1" parent="1">
          <mxGeometry x="306.25" y="435" width="157.5" height="55" as="geometry" />
        </mxCell>
        <mxCell id="PKCxChARmm6Pcake6MCQ-18" value="" style="edgeStyle=orthogonalEdgeStyle;rounded=0;orthogonalLoop=1;jettySize=auto;html=1;" edge="1" parent="1" source="PKCxChARmm6Pcake6MCQ-13" target="PKCxChARmm6Pcake6MCQ-17">
          <mxGeometry relative="1" as="geometry" />
        </mxCell>
        <mxCell id="PKCxChARmm6Pcake6MCQ-21" style="edgeStyle=orthogonalEdgeStyle;rounded=0;orthogonalLoop=1;jettySize=auto;html=1;exitX=1;exitY=0.5;exitDx=0;exitDy=0;entryX=1;entryY=0.5;entryDx=0;entryDy=0;" edge="1" parent="1" source="PKCxChARmm6Pcake6MCQ-13" target="PKCxChARmm6Pcake6MCQ-1">
          <mxGeometry relative="1" as="geometry">
            <Array as="points">
              <mxPoint x="445" y="550" />
              <mxPoint x="620" y="550" />
              <mxPoint x="620" y="70" />
            </Array>
          </mxGeometry>
        </mxCell>
        <mxCell id="PKCxChARmm6Pcake6MCQ-13" value="`t = t_(max)?`" style="whiteSpace=wrap;html=1;fontFamily=Times New Roman;rounded=0;" vertex="1" parent="1">
          <mxGeometry x="325" y="510" width="120" height="60" as="geometry" />
        </mxCell>
        <mxCell id="PKCxChARmm6Pcake6MCQ-16" value="是" style="text;html=1;align=center;verticalAlign=middle;resizable=0;points=[];autosize=1;strokeColor=none;fillColor=none;fontFamily=STSongti-SC-Regular;fontSize=8;" vertex="1" parent="1">
          <mxGeometry x="390" y="490" width="30" height="20" as="geometry" />
        </mxCell>
        <mxCell id="PKCxChARmm6Pcake6MCQ-17" value="计算瞬态电流`I(t)`&lt;div&gt;和通道`Q(t)`中的总电荷&lt;/div&gt;" style="whiteSpace=wrap;html=1;fontFamily=STSongti-SC-Regular;rounded=0;" vertex="1" parent="1">
          <mxGeometry x="288.75" y="590" width="195" height="60" as="geometry" />
        </mxCell>
        <mxCell id="PKCxChARmm6Pcake6MCQ-19" value="是" style="text;html=1;align=center;verticalAlign=middle;resizable=0;points=[];autosize=1;strokeColor=none;fillColor=none;fontFamily=STSongti-SC-Regular;fontSize=9;" vertex="1" parent="1">
          <mxGeometry x="390" y="570" width="30" height="20" as="geometry" />
        </mxCell>
        <mxCell id="PKCxChARmm6Pcake6MCQ-22" value="否，`U_(old)=U_(\n\e\w)`" style="text;html=1;align=center;verticalAlign=middle;resizable=0;points=[];autosize=1;strokeColor=none;fillColor=none;fontFamily=STSongti-SC-Regular;" vertex="1" parent="1">
          <mxGeometry x="445" y="435" width="160" height="30" as="geometry" />
        </mxCell>
        <mxCell id="PKCxChARmm6Pcake6MCQ-23" value="否，`t=t+Delta t`" style="text;html=1;align=center;verticalAlign=middle;resizable=0;points=[];autosize=1;strokeColor=none;fillColor=none;fontFamily=STSongti-SC-Regular;" vertex="1" parent="1">
          <mxGeometry x="470" y="520" width="110" height="30" as="geometry" />
        </mxCell>
      </root>
    </mxGraphModel>
  </diagram>
</mxfile>
